<?xml version="1.0" encoding="iso-8859-1"?>
<!-- Generator: Adobe Illustrator 19.0.0, SVG Export Plug-In . SVG Version: 6.00 Build 0)  -->
<svg version="1.1" id="Capa_1" xmlns="http://www.w3.org/2000/svg" xmlns:xlink="http://www.w3.org/1999/xlink" x="0px" y="0px"
	 viewBox="0 0 512 512" style="enable-background:new 0 0 512 512;" xml:space="preserve">
<path style="fill:#E82934;" d="M504.5,250.542c0,124.837-101.191,227.142-229.61,236.333v-27.692
	c112.424-9.141,200.685-99.062,200.685-208.641c0-115.677-98.306-209.44-219.575-209.44c-121.26,0-219.575,93.763-219.575,209.44
	c0,102.025,76.5,187.007,177.761,205.627c17.972-19.998,26.508-65.203,29.024-103.253c0.12-1.726,0.22-3.423,0.31-5.109
	l-62.362,32.352c-1.108,0.609-2.436-0.15-2.566-1.467c-0.829-8.073-6.699-29.967-46.757-14.729
	c-1.568,0.609-2.985-1.227-2.117-2.744c6.18-10.807,18.132-36.932-2.816-48.249c-1.198-0.659-1.318-2.435-0.21-3.243l19.15-13.951
	c0.07-0.04,0.13-0.09,0.19-0.15c5.252-4.76,3.854-13.771-2.596-16.475l-41.086-17.204c-1.288-0.539-1.528-2.365-0.429-3.253
	c7.518-6.077,26.149-26.305-6.62-58.966c-1.338-1.337-0.12-3.702,1.657-3.203c16.814,4.72,54.494,10.707,50.7-31.853
	c-0.14-1.597,1.538-2.635,2.776-1.736l41.475,30.326c7.169,5.239,16.734-1.287,15.266-10.398l-8.676-53.438
	c-0.25-1.567,1.328-2.754,2.636-1.956c7.408,4.531,25.48,12.154,36.103-12.773c9.355-21.924,14.717-34.488,17.143-40.205
	c0.639-1.477,2.606-1.477,3.235,0c2.436,5.718,7.798,18.282,17.143,40.205c10.623,24.928,28.695,17.304,36.113,12.773
	c1.298-0.798,2.885,0.389,2.626,1.956l-8.656,53.438c-1.488,9.111,8.087,15.637,15.256,10.398l41.475-30.326
	c1.238-0.898,2.905,0.14,2.766,1.736c-3.784,42.56,33.897,36.573,50.71,31.853c1.777-0.499,2.995,1.866,1.647,3.203
	c-32.759,32.661-14.138,52.889-6.62,58.966c1.108,0.888,0.859,2.714-0.429,3.253l-41.086,17.204
	c-6.45,2.704-7.848,11.715-2.596,16.475c0.06,0.06,0.12,0.11,0.19,0.15l19.15,13.951c1.108,0.808,0.998,2.585-0.21,3.243
	c-20.937,11.316-8.986,37.441-2.806,48.249c0.869,1.517-0.549,3.353-2.117,2.744c-40.067-15.238-45.938,6.656-46.767,14.729
	c-0.13,1.317-1.458,2.076-2.556,1.467l-64.369-30.107c-0.14,4.022-0.389,8.522-0.739,13.412
	c-1.917,27.123-6.889,65.991-13.569,98.363c0,0-7.488,31.434-13.229,36.673c-5.202-0.289-7.358-12.025-12.47-12.604
	c-7.249-0.818-14.407-1.936-21.456-3.343C92.227,460.13,7.5,364.771,7.5,250.542C7.5,119.626,118.755,13.499,256,13.499
	S504.5,119.626,504.5,250.542z"/>
<g>
	<path style="fill:#C7232C;" d="M237.217,350.115c-0.011,0.32-0.026,0.657-0.039,0.983l1.014-0.526L237.217,350.115z"/>
	<path style="fill:#C7232C;" d="M198.869,127.926c0.166-0.136,0.329-0.291,0.494-0.435
		C199.177,127.606,199.006,127.747,198.869,127.926z"/>
	<path style="fill:#C7232C;" d="M415.05,196.52c-7.004,1.966-17.627,4.149-27.367,2.955c-0.072,0.108-0.153,0.212-0.252,0.31
		c-32.759,32.671-14.138,52.899-6.62,58.976c1.108,0.888,0.859,2.714-0.429,3.253l-41.086,17.204
		c-6.45,2.704-7.848,11.715-2.596,16.475c0.06,0.05,0.12,0.1,0.19,0.15l19.15,13.941c1.108,0.818,0.998,2.595-0.21,3.243
		c-19.584,10.594-10.394,34.126-4.066,45.976c6.73-0.93,15.904,0.208,28.41,4.964c1.568,0.599,2.985-1.227,2.117-2.744
		c-6.18-10.817-18.132-36.932,2.806-48.258c1.208-0.649,1.318-2.425,0.21-3.243l-19.15-13.941c-0.07-0.05-0.13-0.099-0.19-0.15
		c-5.252-4.76-3.854-13.771,2.596-16.475l41.086-17.204c1.288-0.539,1.538-2.365,0.429-3.253
		c-7.518-6.078-26.139-26.305,6.62-58.976C418.046,198.385,416.828,196.02,415.05,196.52z"/>
	<path style="fill:#C7232C;" d="M265.745,363.464c-1.917,27.123-6.889,65.991-13.569,98.363c0,0-7.488,31.434-13.229,36.673
		c-5.202-0.289-7.358-12.025-12.47-12.604c-7.249-0.818-14.407-1.936-21.456-3.343c-0.01-0.519-0.15-0.808-0.439-0.858
		c3.584-10.468,9.605-25.526,9.605-25.526c17.972-19.998,26.508-65.203,29.024-103.253L265.745,363.464z"/>
	<path style="fill:#C7232C;" d="M256,13.504c-5.089,0-10.136,0.163-15.149,0.451c118.572,6.335,214.926,91.948,231.76,202.181
		c1.94,11.194,2.965,22.682,2.965,34.399c0,11.374-0.965,22.532-2.794,33.413c-14.764,99.98-94.919,179.934-197.891,199.217v3.712
		c128.418-9.2,229.61-111.505,229.61-236.343C504.5,119.621,393.245,13.504,256,13.504z"/>
	<path style="fill:#C7232C;" d="M10.004,216.889C8.366,227.882,7.5,239.111,7.5,250.535c0,11.679,0.894,23.158,2.605,34.384
		c14.921,86.306,85.156,154.827,174.814,171.306c1.627-1.809,3.171-3.837,4.645-6.035C100.78,423.346,36.425,344.109,36.425,250.535
		c0-110.808,90.234-201.509,204.427-208.934c-4.669-0.283-9.374-0.443-14.118-0.443C117.506,41.158,26.91,117.25,10.004,216.889z"/>
</g>
<path d="M43.925,250.535c0-111.352,95.137-201.943,212.075-201.943c41.039,0,80.852,11.178,115.135,32.325
	c33.351,20.572,59.912,49.492,76.812,83.636c1.837,3.711,6.334,5.232,10.049,3.395c3.712-1.838,5.232-6.337,3.395-10.049
	c-18.148-36.666-46.635-67.701-82.381-89.749C342.357,45.541,299.821,33.591,256,33.591c-60.584,0-117.562,22.523-160.437,63.418
	c-42.973,40.99-66.639,95.513-66.639,153.525c0,103.84,77.343,193.423,183.905,213.008c0.452,0.084,0.906,0.124,1.356,0.124
	c2.105,0,4.14-0.889,5.576-2.485c9.462-10.523,17.082-27.558,22.646-50.633c5.604-23.241,7.771-46.73,8.601-62.343
	c0.143-2.687-1.164-5.244-3.425-6.702s-5.13-1.593-7.519-0.354l-19.273,10.001c-3.676,1.908-5.11,6.435-3.203,10.112
	c1.908,3.676,6.434,5.109,10.112,3.203l7.394-3.837c-2.89,32.759-10.336,69.072-23.878,87.322
	C114.019,428.081,43.925,345.726,43.925,250.535z"/>
<path d="M436.893,77.496C388.557,31.39,324.315,5.999,256,5.999c-76.589,0-148.533,32.367-197.385,88.801
	c-2.711,3.132-2.37,7.868,0.762,10.58c3.132,2.71,7.869,2.368,10.579-0.762C115.957,51.477,183.768,20.999,256,20.999
	c64.441,0,125.007,23.919,170.54,67.351C471.977,131.691,497,189.289,497,250.535c0,58.2-22.911,113.708-64.513,156.298
	c-39.635,40.575-92.677,65.911-150.097,71.865v-12.693c53.767-5.95,103.395-30.028,140.391-68.257
	c38.881-40.178,60.294-92.459,60.294-147.213c0-20.636-3.03-41.055-9.006-60.689c-1.206-3.963-5.395-6.197-9.359-4.991
	c-3.962,1.206-6.197,5.396-4.991,9.359c5.544,18.218,8.356,37.167,8.356,56.321c0,50.84-19.914,99.417-56.073,136.781
	c-36.036,37.237-84.946,60.109-137.72,64.399c-3.894,0.316-6.892,3.569-6.892,7.476v27.692c0,2.082,0.866,4.07,2.39,5.489
	c1.393,1.297,3.22,2.011,5.11,2.011c0.178,0,0.357-0.007,0.537-0.02c64.158-4.596,123.747-31.96,167.791-77.048
	C487.572,371.907,512,312.677,512,250.535C512,185.148,485.327,123.695,436.893,77.496z"/>
<path d="M327.547,386.901c2.65,1.326,5.766,1.299,8.399-0.094c2.771-1.465,4.612-4.219,4.923-7.342
	c0.301-2.931,1.481-8.264,6.011-11.057c4.154-2.562,12.839-4.195,30.619,2.568c3.677,1.404,7.715,0.369,10.286-2.636
	c2.588-3.025,2.996-7.383,1.019-10.836c-3.17-5.549-10.238-19.527-7.406-29.455c1.034-3.625,3.411-6.401,7.245-8.476
	c2.84-1.523,4.674-4.369,4.907-7.612c0.234-3.256-1.182-6.349-3.829-8.303L370.85,289.92c-0.723-0.797-0.612-1.858-0.557-2.18
	c0.065-0.382,0.31-1.309,1.167-1.668l41.084-17.203c3.021-1.265,5.184-4.084,5.643-7.359c0.461-3.287-0.85-6.609-3.395-8.647
	c-3.282-2.653-8.854-8.361-9.294-16.782c-0.48-9.209,5.069-19.657,16.483-31.04c3.053-3.03,3.667-7.753,1.493-11.483
	c-2.123-3.643-6.422-5.398-10.451-4.264c-7.549,2.119-26.095,6.225-35.268-1.391c-4.914-4.08-6.915-11.673-5.945-22.577
	c0.323-3.681-1.525-7.224-4.708-9.027c-3.124-1.769-7.022-1.548-9.954,0.579l-41.474,30.321c-0.314,0.231-1.053,0.77-2.127,0.108
	c-0.39-0.239-1.637-1.181-1.3-3.241l8.654-53.421c0.6-3.647-0.979-7.322-4.022-9.364c-2.979-2-6.879-2.077-9.913-0.209
	c-3.12,1.903-9.153,4.842-14.517,3.127c-4.214-1.349-7.844-5.535-10.788-12.442l-17.143-40.204
	c-1.462-3.434-4.794-5.658-8.488-5.669c-0.009,0-0.017,0-0.026,0c-3.688,0-7.024,2.208-8.525,5.68
	c-2.32,5.469-7.328,17.204-15.95,37.409l-1.188,2.784c-2.945,6.908-6.576,11.095-10.791,12.443
	c-5.364,1.716-11.387-1.223-14.504-3.128c-3.098-1.893-6.896-1.814-9.909,0.202c-3.032,2.029-4.62,5.691-4.039,9.356l8.675,53.431
	c0.333,2.064-0.922,3.009-1.314,3.249c-1.073,0.658-1.809,0.118-2.122-0.109l-41.495-30.332c-2.911-2.112-6.811-2.333-9.939-0.563
	c-3.185,1.803-5.035,5.345-4.712,9.035c0.971,10.896-1.027,18.488-5.939,22.568c-9.171,7.615-27.717,3.509-35.264,1.39
	c-4.089-1.148-8.285,0.56-10.445,4.251c-2.178,3.721-1.579,8.441,1.465,11.485c11.427,11.393,16.978,21.838,16.498,31.047
	c-0.438,8.42-6.014,14.131-9.298,16.785c-2.558,2.067-3.855,5.391-3.387,8.672c0.466,3.263,2.625,6.072,5.634,7.332l41.083,17.203
	c0.859,0.36,1.104,1.287,1.169,1.669c0.055,0.321,0.167,1.381-0.556,2.178l-18.879,13.743c-2.612,1.907-4.041,4.99-3.821,8.248
	c0.219,3.254,2.044,6.113,4.885,7.652c3.859,2.087,6.239,4.863,7.274,8.49c2.833,9.927-4.233,23.903-7.399,29.444
	c-1.981,3.46-1.574,7.818,1.015,10.843c2.572,3.005,6.608,4.041,10.277,2.639c17.783-6.766,26.465-5.132,30.618-2.572
	c4.529,2.793,5.71,8.127,6.009,11.034c0.312,3.139,2.147,5.889,4.91,7.357c2.699,1.431,5.909,1.435,8.607,0.008l14.999-7.782
	c3.676-1.908,5.11-6.435,3.203-10.112c-1.908-3.678-6.437-5.11-10.111-3.203l-8.411,4.364c-1.74-5.005-5.052-10.562-11.333-14.434
	c-7.773-4.793-18.163-5.683-30.999-2.673c3.41-8.728,5.796-19.377,3.041-29.03c-1.417-4.965-3.997-9.208-7.701-12.682l12.866-9.367
	c0.227-0.162,0.426-0.319,0.622-0.481c0.084-0.07,0.167-0.143,0.249-0.217c4.422-4.008,6.449-9.982,5.421-15.98
	c-1.007-5.878-4.803-10.726-10.157-12.971l-33.374-13.975c4.121-5.019,8.042-12.151,8.524-21.403
	c0.505-9.683-2.889-19.688-10.11-29.873c16.751,1.729,26.732-2.783,32.46-7.54c6.612-5.49,10.412-13.451,11.358-23.743
	l32.293,23.606c5.653,4.132,12.861,4.434,18.809,0.789c6.223-3.813,9.476-11.045,8.285-18.435l-7.014-43.2
	c4.891,1.39,10.649,1.911,16.552,0.023c8.554-2.735,15.29-9.75,20.021-20.846l1.187-2.782c4.501-10.548,8.018-18.788,10.679-25.03
	l11.857,27.81c4.73,11.095,11.464,18.108,20.014,20.845c5.904,1.892,11.666,1.368,16.563-0.022l-6.997,43.195
	c-1.205,7.377,2.036,14.612,8.255,18.432c5.953,3.655,13.169,3.357,18.829-0.78l32.287-23.601c0.949,10.292,4.75,18.25,11.362,23.74
	c5.729,4.756,15.705,9.266,32.455,7.54c-7.221,10.188-10.614,20.195-10.109,29.877c0.482,9.247,4.398,16.374,8.523,21.397
	l-33.379,13.977c-5.352,2.244-9.147,7.092-10.154,12.97c-1.028,5.998,0.999,11.972,5.421,15.98c0.082,0.074,0.165,0.146,0.249,0.217
	c0.196,0.162,0.395,0.319,0.563,0.439l12.927,9.41c-3.702,3.474-6.28,7.715-7.696,12.679c-2.753,9.653-0.367,20.302,3.044,29.032
	c-12.839-3.008-23.236-2.12-31.01,2.674c-6.395,3.943-9.712,9.633-11.427,14.715l-57.919-27.095
	c-2.281-1.067-4.945-0.919-7.093,0.396c-2.147,1.314-3.493,3.619-3.581,6.136c-0.853,24.451-6.096,71.436-14.134,110.405
	c-2.088,8.739-5.003,18.685-7.513,25.42c-2.19-3.278-5.191-6.617-10.023-7.165C106.277,464.789,15,366.807,15,250.535
	c0-41.868,11.945-82.838,34.544-118.48c2.218-3.499,1.18-8.133-2.318-10.351c-3.499-2.219-8.132-1.181-10.35,2.317
	C12.751,162.07,0,205.818,0,250.535c0,123.503,96.361,227.614,224.359,242.676c0.545,0.729,1.284,1.959,1.815,2.842
	c2.293,3.815,5.758,9.58,12.37,9.936c0.135,0.007,0.269,0.011,0.403,0.011c1.865,0,3.67-0.696,5.055-1.96
	c6.479-5.913,12.473-27.897,15.469-40.475c0.018-0.074,0.034-0.147,0.049-0.222c7.208-34.909,12.118-74.982,13.876-101.774
	L327.547,386.901z"/>
<g>
</g>
<g>
</g>
<g>
</g>
<g>
</g>
<g>
</g>
<g>
</g>
<g>
</g>
<g>
</g>
<g>
</g>
<g>
</g>
<g>
</g>
<g>
</g>
<g>
</g>
<g>
</g>
<g>
</g>
</svg>
