<?xml version="1.0" encoding="iso-8859-1"?>
<!-- Generator: Adobe Illustrator 19.0.0, SVG Export Plug-In . SVG Version: 6.00 Build 0)  -->
<svg version="1.1" id="Capa_1" xmlns="http://www.w3.org/2000/svg" xmlns:xlink="http://www.w3.org/1999/xlink" x="0px" y="0px"
	 viewBox="0 0 448.557 448.557" style="enable-background:new 0 0 448.557 448.557;" xml:space="preserve">
<path style="fill:#1976D2;" d="M413.859,122.652c-33.391-50.264-87.513-82.96-147.541-89.131
	c-79.061-7.744-131.712,10.816-175.979,62.315c-3.847,4.462-3.348,11.197,1.114,15.044c2.662,2.294,6.282,3.131,9.681,2.236
	c49.941-13.099,172.48-7.509,209.749,21.333c9.643,7.445,9.643,13.547,9.643,15.552c-0.011,5.891,4.757,10.675,10.648,10.686
	c2.84,0.005,5.565-1.123,7.571-3.134c20.404-11.888,43.585-18.18,67.2-18.24c5.869-0.507,10.216-5.676,9.709-11.545
	c-0.155-1.8-0.766-3.531-1.773-5.031L413.859,122.652z"/>
<path style="fill:#2196F3;" d="M338.446,415.324c-1.497,0.845-3.188,1.287-4.907,1.28H86.073
	c-23.053,1.236-45.593-7.101-62.293-23.04c-5.618-5.685-10.17-12.333-13.44-19.627c-3.429-6.726-5.872-13.911-7.253-21.333
	c-2.145-9.443-3.077-19.121-2.773-28.8c0.064-4.603,3.075-8.646,7.467-10.027l213.547-67.413
	c29.44-8.747,37.547-26.667,35.627-40.533c-2.27-14.315-14.964-24.617-29.44-23.893H53.859c-3.737-0.007-7.205-1.943-9.173-5.12
	c-1.843-3.205-2.002-7.109-0.427-10.453c12.551-25.256,28.017-48.955,46.08-70.613c1.453-1.533,3.297-2.639,5.333-3.2
	c48.853-12.8,181.76-10.88,228.267,24.96c5.595,4.174,10.247,9.48,13.653,15.573c21.23-8.589,43.704-13.703,66.56-15.147
	c3.827-0.362,7.535,1.451,9.6,4.693c19.576,28.545,31.343,61.714,34.133,96.213C454.532,300.451,411.328,378.015,338.446,415.324z"
	/>
<path style="fill:#ECEFF1;" d="M277.859,202.567c-4.095-24.602-25.625-42.471-50.56-41.963H53.859c-4.002,0-7.668,2.241-9.493,5.803
	c-23.06,49.086-37.872,101.638-43.84,155.541c-1.133,5.781,2.636,11.386,8.417,12.518c1.75,0.343,3.557,0.242,5.258-0.294
	l213.44-67.328C270.073,254.194,281.251,224.327,277.859,202.567z"/>
<path style="fill:#757575;" d="M128.526,363.271c0,5.891-4.776,10.667-10.667,10.667H10.339c-3.429-6.726-5.872-13.911-7.253-21.333
	h114.773C123.75,352.604,128.526,357.38,128.526,363.271z"/>
<path d="M333.625,416.54H86.009c-23.305,1.144-46.04-7.431-62.784-23.68C5.972,372.742-2.238,346.408,0.526,320.05
	c6.19-53.28,21.019-105.195,43.904-153.707c54.229-105.92,116.395-143.275,221.931-132.8
	C377.715,44.874,458.801,144.33,447.47,255.685c-6.945,68.252-47.947,128.357-108.96,159.725
	C336.998,416.179,335.321,416.567,333.625,416.54z M233.187,53.148c-78.165,0-124.672,34.88-169.771,122.923
	c-21.478,45.793-35.507,94.722-41.557,144.939c-2.422,20.512,3.617,41.126,16.725,57.088c12.719,12.054,29.898,18.242,47.381,17.067
	h245.035c88.374-47.113,121.823-156.946,74.71-245.32C377.321,96.591,324.3,60.951,264.27,54.77
	C253.418,53.703,243.058,53.162,233.187,53.148z"/>
<path d="M21.859,331.207c-5.891,0.001-10.668-4.774-10.669-10.665c-0.001-4.66,3.023-8.781,7.469-10.178l202.667-64
	c29.44-8.725,37.589-26.709,35.456-40.661c-2.206-14.12-14.625-24.357-28.907-23.829H64.526c-5.891,0-10.667-4.776-10.667-10.667
	s4.776-10.667,10.667-10.667h162.645c25.058-0.79,46.785,17.198,50.688,41.963c3.307,21.781-7.872,51.691-50.325,64.256l-202.475,64
	C24.022,331.07,22.943,331.221,21.859,331.207z"/>
<path d="M117.859,373.874H32.526c-5.891,0-10.667-4.776-10.667-10.667c0-5.891,4.776-10.667,10.667-10.667h85.333
	c5.891,0,10.667,4.776,10.667,10.667C128.526,369.098,123.75,373.874,117.859,373.874z"/>
<path d="M331.193,160.54c-1.399,0.003-2.784-0.273-4.075-0.811c-3.989-1.649-6.591-5.539-6.592-9.856
	c0-6.976-4.971-13.589-14.763-19.648c-48.192-29.781-175.104-28.117-204.395-13.483c-5.272,2.633-11.681,0.494-14.315-4.779
	c-2.633-5.272-0.494-11.681,4.779-14.315l0,0c37.824-18.923,172.907-17.899,225.216,14.421c8.689,4.929,15.861,12.145,20.736,20.864
	c21.544-8.519,44.292-13.602,67.413-15.061c5.824-0.262,10.82,4.112,11.328,9.92c0.415,5.876-4.013,10.976-9.889,11.391
	c-0.003,0-0.006,0-0.01,0.001c-23.776,0.44-47.082,6.695-67.883,18.219C336.744,159.411,334.027,160.54,331.193,160.54z"/>
<g>
</g>
<g>
</g>
<g>
</g>
<g>
</g>
<g>
</g>
<g>
</g>
<g>
</g>
<g>
</g>
<g>
</g>
<g>
</g>
<g>
</g>
<g>
</g>
<g>
</g>
<g>
</g>
<g>
</g>
</svg>
