<?xml version="1.0" encoding="iso-8859-1"?>
<!-- Generator: Adobe Illustrator 19.0.0, SVG Export Plug-In . SVG Version: 6.00 Build 0)  -->
<svg version="1.1" id="Layer_1" xmlns="http://www.w3.org/2000/svg" xmlns:xlink="http://www.w3.org/1999/xlink" x="0px" y="0px"
	 viewBox="0 0 511.999 511.999" style="enable-background:new 0 0 511.999 511.999;" xml:space="preserve">
<path style="fill:#D81B60;" d="M488.602,308.126l-258.21,16.127c-95.57,0-162.128-26.964-162.128-51.198
	c0-2.987,0.512-5.802,1.28-8.533H85.33c4.693,0,8.533-3.84,8.533-8.533s-3.84-8.533-8.533-8.533h-5.035
	c16.127-15.274,47.188-25.002,86.525-25.599c41.3,45.054,134.31,47.102,289.441,34.559L488.602,308.126z"/>
<path style="fill:#BDBDBD;" d="M477.765,325.875c-0.341,19.455-7.082,32.511-16.981,32.511H298.657
	c-8.021,0-14.933-8.874-16.639-20.309L477.765,325.875z"/>
<path d="M510.703,311.198l-40.873-65.363l7.85-39.337c0.939-4.693-2.048-9.13-6.656-10.069c-4.608-0.939-9.13,2.048-10.069,6.656
	l-7.253,36.351c-88.744,7.168-157.605,9.472-206.073,1.28l7.424-15.018c2.133-4.267,0.427-9.386-3.755-11.434
	c-4.267-2.133-9.386-0.427-11.434,3.755l-8.533,17.066c-0.341,0.683-0.427,1.365-0.597,2.048
	c-8.362-2.048-16.127-4.523-22.954-7.509l63.401-79.272c2.133-2.645,2.475-6.4,0.853-9.386c-1.707-3.072-5.12-4.779-8.448-4.352
	c-54.014,6.144-85.842,38.313-98.727,68.264c-78.504,1.536-113.66,34.986-113.66,68.179c0,32.767,50.516,54.441,112.21,63.486
	l-21.845,21.845H110.93c-46.249,0-93.864-23.466-93.864-51.198c0-4.693-3.84-8.533-8.533-8.533S0,302.495,0,307.188
	c0,38.313,53.502,68.264,110.93,68.264h119.463c4.693,0,8.533-3.84,8.533-8.533s-3.84-8.533-8.533-8.533h-64.766l19.285-19.285
	c15.104,1.451,30.634,2.219,45.908,2.219h0.085l34.132-2.133c2.475,20.479,16.554,36.265,33.62,36.265h162.128
	c15.701,0,33.962-13.312,34.132-50.686l9.045-0.512c2.987-0.171,5.717-1.963,7.082-4.608
	C512.41,316.915,512.324,313.758,510.703,311.198z M243.192,158.115l-50.686,63.315c-4.523-2.987-8.448-6.229-11.946-9.898
	C189.604,190.541,209.913,168.184,243.192,158.115z M460.785,358.386H298.657c-8.021,0-14.933-8.874-16.639-20.309l195.748-12.202
	C477.424,345.33,470.683,358.386,460.785,358.386z M230.392,324.254c-95.57,0-162.128-26.964-162.128-51.198
	c0-2.987,0.512-5.802,1.28-8.533H85.33c4.693,0,8.533-3.84,8.533-8.533s-3.84-8.533-8.533-8.533h-5.035
	c16.127-15.274,47.188-25.002,86.525-25.599c41.3,45.054,134.31,47.102,289.441,34.559l32.34,51.71L230.392,324.254z"/>
<path style="fill:#FFFFFF;" d="M243.192,158.115l-50.686,63.315c-4.523-2.987-8.448-6.229-11.946-9.898
	C189.604,190.541,209.913,168.184,243.192,158.115z"/>
<path style="fill:#90A4AE;" d="M468.481,326.447c-1.988,14.267-7.987,23.398-16.23,23.398H290.124c-1.587,0-3.115-0.435-4.582-1.084
	c3.149,5.802,7.885,9.617,13.115,9.617h162.128c9.898,0,16.639-13.056,16.981-32.511L468.481,326.447z"/>
<path style="fill:#AD1457;" d="M456.262,256.416c-6.067,0.486-11.869,0.913-17.74,1.357l24.49,39.15L204.793,313.05
	c-47.384,0-87.6-6.639-116.143-16.272c26.657,15.317,77.608,27.476,141.742,27.476l258.21-16.127L456.262,256.416z"/>
<g>
</g>
<g>
</g>
<g>
</g>
<g>
</g>
<g>
</g>
<g>
</g>
<g>
</g>
<g>
</g>
<g>
</g>
<g>
</g>
<g>
</g>
<g>
</g>
<g>
</g>
<g>
</g>
<g>
</g>
</svg>
